<?xml version="1.0" encoding="iso-8859-1"?>
<!-- Generator: Adobe Illustrator 19.0.0, SVG Export Plug-In . SVG Version: 6.00 Build 0)  -->
<svg version="1.1" id="Capa_1" xmlns="http://www.w3.org/2000/svg" xmlns:xlink="http://www.w3.org/1999/xlink" x="0px" y="0px"
	 viewBox="0 0 512 512" style="enable-background:new 0 0 512 512;" xml:space="preserve">
<path style="fill:#6E4848;" d="M202.968,49.55c83.466,0.328,149.643,72.916,147.968,156.365
	c-0.822,40.946-7.755,84.763-8.16,151.357c-0.022,3.607-2.31,6.84-5.76,7.897c-18.652,5.713-79.523,22.961-134.646,22.961h-0.048
	c-55.123,0-115.994-17.247-134.646-22.961c-3.449-1.057-5.738-4.289-5.76-7.897c-0.405-66.593-7.339-110.41-8.16-151.357
	c-1.674-83.45,64.503-156.037,147.969-156.365"/>
<path style="fill:#EBC9A0;" d="M330.641,437.466l-68.605-28.585c-6.155-2.565-10.164-8.578-10.164-15.246V346.84h-99.097v46.795
	c0,6.668-4.009,12.682-10.164,15.246l-68.605,28.585c-12.309,5.129-20.327,17.156-20.327,30.491v27.527
	c0,9.122,7.395,16.516,16.516,16.516h264.258c9.122,0,16.516-7.395,16.516-16.516v-27.527
	C350.968,454.622,342.95,442.595,330.641,437.466z"/>
<path style="fill:#D7AF87;" d="M152.774,370.176c15.311,6.203,32.012,9.695,49.548,9.695s34.237-3.491,49.548-9.695v-23.338h-99.097
	L152.774,370.176L152.774,370.176z"/>
<path style="fill:#F5DCB4;" d="M202.323,363.355L202.323,363.355c-63.851,0-115.613-51.762-115.613-115.613l0,0
	c0-45.608,36.973-82.581,82.581-82.581h148.645v82.581C317.935,311.593,266.174,363.355,202.323,363.355z"/>
<g>
	<path style="fill:#6E4848;" d="M152.774,254.762c-4.565,0-8.258-3.694-8.258-8.258v-5.782c0-4.565,3.694-8.258,8.258-8.258
		c4.565,0,8.258,3.694,8.258,8.258v5.782C161.032,251.069,157.339,254.762,152.774,254.762z"/>
	<path style="fill:#6E4848;" d="M251.871,254.762c-4.565,0-8.258-3.694-8.258-8.258v-5.782c0-4.565,3.694-8.258,8.258-8.258
		c4.564,0,8.258,3.694,8.258,8.258v5.782C260.129,251.069,256.435,254.762,251.871,254.762z"/>
</g>
<path style="fill:#D7AF87;" d="M218.839,313.806h-33.032c-4.565,0-8.258-3.694-8.258-8.258c0-4.565,3.694-8.258,8.258-8.258h33.032
	c4.565,0,8.258,3.694,8.258,8.258C227.097,310.113,223.403,313.806,218.839,313.806z"/>
<path style="fill:#915A55;" d="M136.258,228.339c-3.46,0-6.677-2.185-7.831-5.645c-1.444-4.331,0.895-9.008,5.218-10.444
	l24.774-8.258c4.363-1.46,9,0.895,10.444,5.218c1.444,4.331-0.895,9.008-5.218,10.444l-24.774,8.258
	C138,228.202,137.121,228.339,136.258,228.339z"/>
<path style="fill:#6E4848;" d="M268.386,228.339c3.46,0,6.677-2.185,7.831-5.645c1.444-4.331-0.895-9.008-5.218-10.444
	l-24.774-8.258c-4.363-1.46-9,0.895-10.444,5.218c-1.444,4.331,0.895,9.008,5.218,10.444l24.774,8.258
	C266.644,228.202,267.523,228.339,268.386,228.339z"/>
<path style="fill:#AEA8AF;" d="M330.641,437.466l-48.502-20.209c-9.259,35.484-41.431,61.711-79.816,61.711
	s-70.557-26.227-79.816-61.711l-48.502,20.209c-12.309,5.129-20.328,17.156-20.328,30.491v27.527
	c0,9.121,7.395,16.516,16.516,16.516h264.258c9.121,0,16.516-7.395,16.516-16.516v-27.527
	C350.968,454.621,342.95,442.595,330.641,437.466z"/>
<path style="fill:#915A55;" d="M202.968,49.549h-1.243c-48.66,0.192-91.324,25.036-118.212,62.182
	c29.59,40.62,111.012,124.157,267.274,99.392c0.055-1.739,0.115-3.481,0.15-5.208C352.611,122.465,286.434,49.878,202.968,49.549z"
	/>
<circle style="fill:#FFFFFF;" cx="189.94" cy="128" r="20.645"/>
<path style="fill:#EDEBED;" d="M326.193,165.161h49.549c45.608,0,82.581-36.973,82.581-82.581l0,0
	C458.323,36.973,421.35,0,375.742,0h-49.549c-45.608,0-82.581,36.973-82.581,82.581l0,0
	C243.613,128.189,280.585,165.161,326.193,165.161z"/>
<path style="fill:#5D5360;" d="M400.516,90.839h-99.097c-4.565,0-8.258-3.694-8.258-8.258c0-4.565,3.694-8.258,8.258-8.258h99.097
	c4.565,0,8.258,3.694,8.258,8.258S405.081,90.839,400.516,90.839z"/>
<g>
	<path style="fill:#6F6571;" d="M375.742,57.806h-49.548c-4.565,0-8.258-3.694-8.258-8.258s3.694-8.258,8.258-8.258h49.548
		c4.565,0,8.258,3.694,8.258,8.258S380.306,57.806,375.742,57.806z"/>
	<path style="fill:#6F6571;" d="M375.742,123.871h-49.548c-4.565,0-8.258-3.694-8.258-8.258c0-4.565,3.694-8.258,8.258-8.258h49.548
		c4.565,0,8.258,3.694,8.258,8.258S380.306,123.871,375.742,123.871z"/>
</g>
<g>
</g>
<g>
</g>
<g>
</g>
<g>
</g>
<g>
</g>
<g>
</g>
<g>
</g>
<g>
</g>
<g>
</g>
<g>
</g>
<g>
</g>
<g>
</g>
<g>
</g>
<g>
</g>
<g>
</g>
</svg>
